<svg width="24" height="24" viewBox="0 0 24 24" fill="none" xmlns="http://www.w3.org/2000/svg">
<g id="pie-bar-chart">
<g id="Group 27">
<path id="Vector" d="M9 15H12V20H9V15Z" fill="#1C2E45" fill-opacity="0.6"/>
<path id="Vector_2" d="M5 18H8V20H5V18Z" fill="#1C2E45" fill-opacity="0.6"/>
<path id="Vector_3" d="M17 16H20V20H17V16Z" fill="#1C2E45" fill-opacity="0.6"/>
<path id="Vector_4" d="M13 13H16V20H13V13Z" fill="#1C2E45" fill-opacity="0.6"/>
<path id="Vector_5" d="M9 4C6.239 4 4 6.239 4 9C4 11.761 6.239 14 9 14C11.761 14 14 11.761 14 9C14 6.239 11.761 4 9 4ZM9 13C6.791 13 5 11.209 5 9C5 6.791 6.791 5 9 5V9H13C13 11.209 11.209 13 9 13Z" fill="#1C2E45" fill-opacity="0.6"/>
</g>
</g>
</svg>
