<svg width="24" height="24" viewBox="0 0 24 24" fill="none" xmlns="http://www.w3.org/2000/svg">
<g id="truck">
<path id="Vector" d="M10 5H20V12H10V5Z" fill="#1C2E45" fill-opacity="0.6"/>
<path id="Vector_2" d="M19 16C19 17.105 18.105 18 17 18C15.895 18 15 17.105 15 16C15 14.895 15.895 14 17 14C18.105 14 19 14.895 19 16Z" fill="#1C2E45" fill-opacity="0.6"/>
<path id="Vector_3" d="M17 13C18.3 13 19.4 13.8 19.8 15H20V13H17Z" fill="#1C2E45" fill-opacity="0.6"/>
<path id="Vector_4" d="M9 7H5L4 11V15H5.2C5.6 13.8 6.7 13 8 13C9.3 13 10.4 13.8 10.8 15H14.2C14.6 13.8 15.7 13 17 13H9V7ZM8 11H5L5.8 8H8V11Z" fill="#1C2E45" fill-opacity="0.6"/>
<path id="Vector_5" d="M10 16C10 17.105 9.105 18 8 18C6.895 18 6 17.105 6 16C6 14.895 6.895 14 8 14C9.105 14 10 14.895 10 16Z" fill="#1C2E45" fill-opacity="0.6"/>
</g>
</svg>
